G04 EAGLE Gerber RS-274X export*
G75*
%MOMM*%
%FSLAX34Y34*%
%LPD*%
%IN*%
%IPPOS*%
%AMOC8*
5,1,8,0,0,1.08239X$1,22.5*%
G01*
%ADD10C,0.254000*%


D10*
X0Y0D02*
X257050Y0D01*
X257050Y203100D01*
X0Y203100D01*
X0Y0D01*
X33500Y12528D02*
X33433Y12190D01*
X33301Y11871D01*
X33109Y11584D01*
X32866Y11341D01*
X32579Y11149D01*
X32260Y11017D01*
X31922Y10950D01*
X31578Y10950D01*
X31240Y11017D01*
X30921Y11149D01*
X30634Y11341D01*
X30391Y11584D01*
X30199Y11871D01*
X30067Y12190D01*
X30000Y12528D01*
X30000Y12872D01*
X30067Y13210D01*
X30199Y13529D01*
X30391Y13816D01*
X30634Y14059D01*
X30921Y14251D01*
X31240Y14383D01*
X31578Y14450D01*
X31922Y14450D01*
X32260Y14383D01*
X32579Y14251D01*
X32866Y14059D01*
X33109Y13816D01*
X33301Y13529D01*
X33433Y13210D01*
X33500Y12872D01*
X33500Y12528D01*
X33500Y190328D02*
X33433Y189990D01*
X33301Y189671D01*
X33109Y189384D01*
X32866Y189141D01*
X32579Y188949D01*
X32260Y188817D01*
X31922Y188750D01*
X31578Y188750D01*
X31240Y188817D01*
X30921Y188949D01*
X30634Y189141D01*
X30391Y189384D01*
X30199Y189671D01*
X30067Y189990D01*
X30000Y190328D01*
X30000Y190672D01*
X30067Y191010D01*
X30199Y191329D01*
X30391Y191616D01*
X30634Y191859D01*
X30921Y192051D01*
X31240Y192183D01*
X31578Y192250D01*
X31922Y192250D01*
X32260Y192183D01*
X32579Y192051D01*
X32866Y191859D01*
X33109Y191616D01*
X33301Y191329D01*
X33433Y191010D01*
X33500Y190672D01*
X33500Y190328D01*
X211300Y12528D02*
X211233Y12190D01*
X211101Y11871D01*
X210909Y11584D01*
X210666Y11341D01*
X210379Y11149D01*
X210060Y11017D01*
X209722Y10950D01*
X209378Y10950D01*
X209040Y11017D01*
X208721Y11149D01*
X208434Y11341D01*
X208191Y11584D01*
X207999Y11871D01*
X207867Y12190D01*
X207800Y12528D01*
X207800Y12872D01*
X207867Y13210D01*
X207999Y13529D01*
X208191Y13816D01*
X208434Y14059D01*
X208721Y14251D01*
X209040Y14383D01*
X209378Y14450D01*
X209722Y14450D01*
X210060Y14383D01*
X210379Y14251D01*
X210666Y14059D01*
X210909Y13816D01*
X211101Y13529D01*
X211233Y13210D01*
X211300Y12872D01*
X211300Y12528D01*
X217650Y190328D02*
X217583Y189990D01*
X217451Y189671D01*
X217259Y189384D01*
X217016Y189141D01*
X216729Y188949D01*
X216410Y188817D01*
X216072Y188750D01*
X215728Y188750D01*
X215390Y188817D01*
X215071Y188949D01*
X214784Y189141D01*
X214541Y189384D01*
X214349Y189671D01*
X214217Y189990D01*
X214150Y190328D01*
X214150Y190672D01*
X214217Y191010D01*
X214349Y191329D01*
X214541Y191616D01*
X214784Y191859D01*
X215071Y192051D01*
X215390Y192183D01*
X215728Y192250D01*
X216072Y192250D01*
X216410Y192183D01*
X216729Y192051D01*
X217016Y191859D01*
X217259Y191616D01*
X217451Y191329D01*
X217583Y191010D01*
X217650Y190672D01*
X217650Y190328D01*
M02*
