M48
;GenerationSoftware,Autodesk,EAGLE,9.3.2*%
;CreationDate,2019-03-29T06:09:34Z*%
FMAT,2
ICI,OFF
METRIC,TZ,000.000
T6C0.350
T5C0.700
T4C0.800
T3C0.813
T2C0.900
T1C1.016
%
G90
M71
T1
X3175Y12720
X3175Y15220
X3175Y5100
X3175Y7600
X22225Y15220
X22225Y12720
T2
X17145Y8890
X17145Y16510
X13335Y8890
X13335Y16510
T3
X9525Y7620
X11430Y6350
X9525Y5080
X21590Y5715
X19685Y6985
X21590Y8255
T4
X3175Y1270
X3175Y19050
X21590Y19050
X20955Y1270
T5
X9525Y12085
X9525Y14585
X16490Y6350
X13990Y6350
T6
X3175Y1270
X3175Y19050
X20955Y1270
X21590Y19050
M30